# xmcd
#
# Track frame offsets: 
#        150
#        23262
#        44966
#        67252
#        80318
#        94839
#        110570
#        123508
#        161947
#        171892
#        200332
#        221148
#        279698
#        305544
#
# Disc length: 4465 seconds
#
# Revision: 0
# Processed by: cddbd v1.4PL0 Copyright (c) Steve Scherf et al.
# Submitted via: ExactAudioCopy v0.90b4
#
DISCID=d3116f0e
DTITLE=Van Morrison - Live in Montreux
DYEAR=1990
DGENRE=Celtic
TTITLE0=Yeh Yeh
TTITLE1=Did Ye Get Healed ?
TTITLE2=It's All In The Game > Make It Real One More Time
TTITLE3=Here Comes The Night
TTITLE4=Baby Please Don't Go
TTITLE5=Domino > In The Midnight Hour
TTITLE6=Jackie Wilson Said ...
TTITLE7=Sweet Thing
TTITLE8=Star Of The County Down
TTITLE9=Northern Muse (Solid Ground) > When Heart Is Open
TTITLE10=Whenever God Shines His Light
TTITLE11=Summertime In England
TTITLE12=Caravan
TTITLE13=In The Garden
EXTD=
EXTT0=
EXTT1=
EXTT2=
EXTT3=
EXTT4=
EXTT5=
EXTT6=
EXTT7=
EXTT8=
EXTT9=
EXTT10=
EXTT11=
EXTT12=
EXTT13=
PLAYORDER=
